<?xml version="1.0" standalone="no"?>
<!DOCTYPE svg PUBLIC "-//W3C//DTD SVG 20010904//EN"
 "http://www.w3.org/TR/2001/REC-SVG-20010904/DTD/svg10.dtd">
<svg version="1.0" xmlns="http://www.w3.org/2000/svg"
 width="200.000000pt" height="200.000000pt" viewBox="0 0 200.000000 200.000000"
 preserveAspectRatio="xMidYMid meet">
<metadata>
Created by potrace 1.16, written by Peter Selinger 2001-2019
</metadata>
<g transform="translate(0.000000,200.000000) scale(0.100000,-0.100000)"
fill="#000000" stroke="none">
<path d="M905 1774 c-170 -41 -326 -166 -404 -325 -122 -247 -77 -531 115
-723 72 -72 145 -118 246 -154 63 -22 89 -26 193 -26 103 0 131 4 200 27 200
66 358 237 410 442 19 75 19 221 0 302 -52 222 -229 397 -460 458 -73 19 -219
18 -300 -1z m299 -39 c179 -47 328 -180 402 -360 27 -66 29 -78 29 -210 -1
-158 -12 -202 -85 -314 -206 -318 -643 -362 -910 -92 -138 140 -195 334 -155
526 45 212 217 395 425 449 73 20 221 20 294 1z"/>
<path d="M960 1588 c-33 -17 -48 -32 -56 -57 -7 -21 -22 -40 -40 -49 -16 -8
-32 -20 -36 -26 -12 -17 -9 -86 4 -131 l12 -40 7 48 c14 93 53 125 128 107 31
-7 60 -8 82 -2 28 7 44 4 94 -20 33 -15 68 -28 78 -28 13 0 17 -9 17 -42 0
-74 15 -73 33 2 16 69 16 72 -3 109 -48 95 -111 138 -213 147 -52 5 -69 2
-107 -18z"/>
<path d="M908 1330 c-9 -6 -23 -23 -30 -38 -13 -24 -12 -31 3 -56 22 -37 37
-46 75 -46 35 0 61 24 73 66 5 22 14 29 31 29 17 0 26 -7 31 -29 12 -42 38
-66 73 -66 38 0 53 9 75 46 15 25 16 32 3 56 -26 52 -96 66 -129 26 -12 -16
-29 -23 -53 -23 -24 0 -41 7 -53 23 -20 24 -68 29 -99 12z"/>
<path d="M900 1122 c0 -49 67 -83 127 -64 24 7 43 7 64 0 47 -16 97 -2 119 34
22 36 16 57 -9 34 -19 -18 -57 -21 -66 -7 -6 10 -122 7 -168 -4 -20 -5 -33 -2
-47 10 -19 17 -20 17 -20 -3z"/>
<path d="M922 918 c-16 -16 -16 -130 0 -146 18 -18 36 -15 83 18 53 36 59 37
97 5 37 -31 74 -41 93 -25 17 14 16 133 -2 151 -17 17 -61 2 -95 -32 -37 -36
-45 -36 -83 0 -35 35 -75 47 -93 29z"/>
<path d="M107 843 c-14 -14 -6 -50 16 -71 12 -11 43 -26 69 -32 26 -7 54 -21
64 -31 16 -18 16 -19 -9 -19 -26 0 -36 -13 -19 -24 12 -7 183 31 195 44 10 10
0 11 -45 5 -92 -10 -135 15 -49 29 72 11 57 34 -33 51 -24 5 -36 3 -36 -4 0
-6 6 -11 14 -11 8 0 18 -4 21 -10 4 -6 -17 -10 -54 -10 -54 0 -64 3 -93 31
-22 20 -29 32 -20 36 6 2 12 9 12 14 0 10 -23 12 -33 2z"/>
<path d="M1740 813 c0 -5 16 -33 35 -63 38 -58 43 -86 21 -115 -13 -18 -14
-17 -31 9 -16 23 -16 29 -4 36 10 7 11 12 2 21 -28 28 -45 -28 -22 -74 9 -19
9 -20 -4 -5 -13 16 -67 36 -67 25 0 -3 5 -18 10 -33 16 -40 15 -91 -1 -110
-13 -16 -14 -14 -19 17 -5 37 -26 45 -44 17 -15 -25 4 -72 31 -76 13 -2 31 8
48 25 23 25 26 34 21 78 -5 49 -5 49 10 23 8 -16 23 -28 33 -28 18 0 71 65 71
87 0 6 5 13 11 15 9 3 9 9 0 25 -6 12 -11 32 -11 45 1 20 2 21 11 6 5 -10 21
-18 34 -18 21 0 25 5 25 30 0 17 -4 30 -10 30 -5 0 -10 -10 -10 -22 0 -22 -1
-22 -23 6 -17 21 -29 27 -43 22 -14 -4 -27 0 -39 14 -18 20 -35 26 -35 13z"/>
<path d="M288 649 c-29 -16 -21 -38 15 -44 27 -5 37 -14 48 -42 14 -36 19 -38
89 -18 l25 7 -22 -16 c-13 -10 -23 -23 -23 -30 0 -16 54 -56 77 -56 15 0 16
-2 3 -10 -8 -5 -33 -10 -55 -10 -86 0 -147 -35 -131 -76 9 -24 61 -16 129 19
35 19 86 37 113 40 27 4 60 9 74 12 24 5 24 5 3 -6 -51 -27 -35 -56 37 -67
l55 -8 -70 -21 c-68 -21 -145 -75 -145 -102 0 -17 60 -13 105 8 22 10 59 34
82 54 24 19 56 38 73 42 32 7 41 25 13 25 -13 0 -11 6 12 30 40 41 25 48 -38
17 -29 -15 -58 -27 -65 -27 -21 0 -13 16 13 28 14 6 25 16 25 22 0 14 -33 13
-49 -2 -11 -11 -11 -9 -1 10 6 13 9 30 6 38 -5 12 -12 11 -45 -6 -22 -11 -50
-20 -62 -20 -21 0 -22 1 -4 20 15 17 16 22 4 36 -11 13 -25 15 -71 11 l-57 -5
27 24 c27 24 27 24 7 40 -14 10 -31 13 -55 9 -19 -4 -39 -7 -44 -8 -6 -1 -11
5 -13 14 -3 11 5 18 27 22 52 11 36 30 -20 25 -27 -3 -50 -1 -50 3 0 5 9 9 20
9 11 0 20 5 20 10 0 13 -60 12 -82 -1z"/>
<path d="M1550 524 c-13 -75 -13 -76 -24 -43 -19 56 -33 45 -40 -30 -6 -58
-11 -74 -32 -90 -29 -23 -30 -31 -5 -31 26 0 51 26 58 62 5 25 8 27 15 14 17
-30 38 -19 39 22 1 20 4 48 8 62 7 23 8 22 14 -13 7 -46 23 -67 48 -67 24 0
24 8 -1 28 -14 12 -22 34 -27 72 -12 112 -35 118 -53 14z"/>
<path d="M1050 428 c-22 -37 -35 -91 -25 -107 12 -21 25 -10 25 22 0 36 19 78
38 85 18 6 15 -17 -13 -76 -28 -61 -45 -71 -78 -45 l-25 18 31 42 c36 51 27
72 -11 27 -83 -98 -94 -116 -83 -127 9 -9 16 -6 31 13 l19 25 25 -24 c18 -17
32 -22 50 -17 61 15 113 186 59 194 -16 2 -28 -6 -43 -30z"/>
</g>
</svg>
